<mxfile host="app.diagrams.net" modified="2023-11-22T23:33:01.614Z" agent="Mozilla/5.0 (Windows NT 10.0; Win64; x64) AppleWebKit/537.36 (KHTML, like Gecko) Chrome/119.0.0.0 Safari/537.36" etag="oTDrn23T7qcA_0bLoucd" version="22.1.3" type="device">
  <diagram name="PÃ¡gina-1" id="LPAUuE1sYoByQAtt3wmM">
    <mxGraphModel dx="1199" dy="657" grid="1" gridSize="10" guides="1" tooltips="1" connect="1" arrows="1" fold="1" page="1" pageScale="1" pageWidth="827" pageHeight="1169" math="0" shadow="0">
      <root>
        <mxCell id="0" />
        <mxCell id="1" parent="0" />
        <mxCell id="U8iGTYYdDx7wfRS6JF8m-37" value="" style="shape=folder;fontStyle=1;spacingTop=10;tabWidth=40;tabHeight=14;tabPosition=left;html=1;whiteSpace=wrap;" parent="1" vertex="1">
          <mxGeometry x="80" y="340" width="260" height="550" as="geometry" />
        </mxCell>
        <mxCell id="U8iGTYYdDx7wfRS6JF8m-35" value="" style="shape=folder;fontStyle=1;spacingTop=10;tabWidth=40;tabHeight=14;tabPosition=left;html=1;whiteSpace=wrap;" parent="1" vertex="1">
          <mxGeometry x="485" y="530" width="260" height="270" as="geometry" />
        </mxCell>
        <mxCell id="U8iGTYYdDx7wfRS6JF8m-32" value="" style="shape=folder;fontStyle=1;spacingTop=10;tabWidth=40;tabHeight=14;tabPosition=left;html=1;whiteSpace=wrap;" parent="1" vertex="1">
          <mxGeometry x="520" y="100" width="260" height="270" as="geometry" />
        </mxCell>
        <mxCell id="U8iGTYYdDx7wfRS6JF8m-15" value="" style="shape=folder;fontStyle=1;spacingTop=10;tabWidth=40;tabHeight=14;tabPosition=left;html=1;whiteSpace=wrap;" parent="1" vertex="1">
          <mxGeometry x="60" y="45" width="260" height="185" as="geometry" />
        </mxCell>
        <mxCell id="U8iGTYYdDx7wfRS6JF8m-12" value="&lt;p style=&quot;margin:0px;margin-top:4px;text-align:center;&quot;&gt;Fast Downward&lt;/p&gt;" style="verticalAlign=top;align=left;overflow=fill;fontSize=12;fontFamily=Helvetica;html=1;whiteSpace=wrap;" parent="1" vertex="1">
          <mxGeometry x="110" y="70" width="140" height="30" as="geometry" />
        </mxCell>
        <mxCell id="U8iGTYYdDx7wfRS6JF8m-13" value="&lt;p style=&quot;margin:0px;margin-top:4px;text-align:center;&quot;&gt;NLM&lt;/p&gt;" style="verticalAlign=top;align=left;overflow=fill;fontSize=12;fontFamily=Helvetica;html=1;whiteSpace=wrap;" parent="1" vertex="1">
          <mxGeometry x="110" y="110" width="140" height="30" as="geometry" />
        </mxCell>
        <mxCell id="U8iGTYYdDx7wfRS6JF8m-14" value="&lt;p style=&quot;margin:0px;margin-top:4px;text-align:center;&quot;&gt;PDDL Prover (pip)&lt;/p&gt;" style="verticalAlign=top;align=left;overflow=fill;fontSize=12;fontFamily=Helvetica;html=1;whiteSpace=wrap;" parent="1" vertex="1">
          <mxGeometry x="110" y="150" width="140" height="30" as="geometry" />
        </mxCell>
        <mxCell id="U8iGTYYdDx7wfRS6JF8m-16" value="&lt;b&gt;&lt;font style=&quot;font-size: 17px;&quot;&gt;Libs&lt;/font&gt;&lt;/b&gt;" style="text;html=1;strokeColor=none;fillColor=none;align=center;verticalAlign=middle;whiteSpace=wrap;rounded=0;" parent="1" vertex="1">
          <mxGeometry x="150" y="30" width="60" height="30" as="geometry" />
        </mxCell>
        <mxCell id="U8iGTYYdDx7wfRS6JF8m-18" value="&lt;p style=&quot;margin:0px;margin-top:4px;text-align:center;&quot;&gt;Lifted PDDL (pip)&lt;/p&gt;" style="verticalAlign=top;align=left;overflow=fill;fontSize=12;fontFamily=Helvetica;html=1;whiteSpace=wrap;" parent="1" vertex="1">
          <mxGeometry x="110" y="190" width="140" height="30" as="geometry" />
        </mxCell>
        <mxCell id="U8iGTYYdDx7wfRS6JF8m-20" value="&lt;p style=&quot;margin:0px;margin-top:4px;text-align:center;&quot;&gt;&lt;b&gt;planner.py&lt;/b&gt;&lt;/p&gt;&lt;hr size=&quot;1&quot;&gt;&lt;div style=&quot;text-align: justify; height: 2px;&quot;&gt;Interface with FD to solve problems and obtain solving metrics (e.g., number of nodes expanded)&lt;/div&gt;" style="verticalAlign=top;align=left;overflow=fill;fontSize=12;fontFamily=Helvetica;html=1;whiteSpace=wrap;" parent="1" vertex="1">
          <mxGeometry x="570" y="130" width="170" height="100" as="geometry" />
        </mxCell>
        <mxCell id="U8iGTYYdDx7wfRS6JF8m-21" value="&lt;p style=&quot;margin:0px;margin-top:4px;text-align:center;&quot;&gt;&lt;b&gt;consistency_validator.py&lt;/b&gt;&lt;/p&gt;&lt;hr size=&quot;1&quot;&gt;&lt;div style=&quot;text-align: justify; height: 2px;&quot;&gt;Evaluate continuous and eventual consistency&lt;br&gt;(all validators for domains inherit from this one)&lt;/div&gt;" style="verticalAlign=top;align=left;overflow=fill;fontSize=12;fontFamily=Helvetica;html=1;whiteSpace=wrap;" parent="1" vertex="1">
          <mxGeometry x="570" y="260" width="170" height="100" as="geometry" />
        </mxCell>
        <mxCell id="U8iGTYYdDx7wfRS6JF8m-27" value="&lt;p style=&quot;margin:0px;margin-top:4px;text-align:center;&quot;&gt;&lt;b&gt;problem_state.py&lt;/b&gt;&lt;/p&gt;&lt;hr size=&quot;1&quot;&gt;&lt;div style=&quot;text-align: justify; height: 2px;&quot;&gt;Funcionality associated with a search node (half-generated problem).&lt;br&gt;&lt;/div&gt;" style="verticalAlign=top;align=left;overflow=fill;fontSize=12;fontFamily=Helvetica;html=1;whiteSpace=wrap;" parent="1" vertex="1">
          <mxGeometry x="125" y="530" width="170" height="100" as="geometry" />
        </mxCell>
        <mxCell id="U8iGTYYdDx7wfRS6JF8m-28" value="&lt;p style=&quot;margin:0px;margin-top:4px;text-align:center;&quot;&gt;&lt;b&gt;relational_state.py&lt;/b&gt;&lt;/p&gt;&lt;hr size=&quot;1&quot;&gt;&lt;div style=&quot;text-align: justify; height: 2px;&quot;&gt;Functionality associated with a PDDL/logic state.&lt;br&gt;&lt;/div&gt;" style="verticalAlign=top;align=left;overflow=fill;fontSize=12;fontFamily=Helvetica;html=1;whiteSpace=wrap;" parent="1" vertex="1">
          <mxGeometry x="125" y="410" width="170" height="100" as="geometry" />
        </mxCell>
        <mxCell id="U8iGTYYdDx7wfRS6JF8m-29" value="&lt;p style=&quot;margin:0px;margin-top:4px;text-align:center;&quot;&gt;&lt;b&gt;reinforce.py&lt;/b&gt;&lt;/p&gt;&lt;hr size=&quot;1&quot;&gt;&lt;div style=&quot;text-align: justify; height: 2px;&quot;&gt;Dataset and transform function for dataset.&lt;/div&gt;" style="verticalAlign=top;align=left;overflow=fill;fontSize=12;fontFamily=Helvetica;html=1;whiteSpace=wrap;" parent="1" vertex="1">
          <mxGeometry x="125" y="650" width="170" height="100" as="geometry" />
        </mxCell>
        <mxCell id="U8iGTYYdDx7wfRS6JF8m-30" value="&lt;p style=&quot;margin:0px;margin-top:4px;text-align:center;&quot;&gt;&lt;b&gt;generative_policy.py&lt;/b&gt;&lt;/p&gt;&lt;hr size=&quot;1&quot;&gt;&lt;div style=&quot;text-align: justify; height: 2px;&quot;&gt;Lightning module for the policy (also contains training with PPO).&lt;/div&gt;" style="verticalAlign=top;align=left;overflow=fill;fontSize=12;fontFamily=Helvetica;html=1;whiteSpace=wrap;" parent="1" vertex="1">
          <mxGeometry x="125" y="770" width="170" height="100" as="geometry" />
        </mxCell>
        <mxCell id="U8iGTYYdDx7wfRS6JF8m-31" value="&lt;p style=&quot;margin:0px;margin-top:4px;text-align:center;&quot;&gt;&lt;b&gt;generator.py&lt;/b&gt;&lt;/p&gt;&lt;hr size=&quot;1&quot;&gt;&lt;div style=&quot;text-align: justify; height: 2px;&quot;&gt;Functionality for:&lt;br&gt;1) generating the problems&lt;br&gt;2) training the policies&lt;br&gt;&amp;lt;DOES NOT CONTAIN SINGLE RESPONSIBILITY&amp;gt;&lt;/div&gt;" style="verticalAlign=top;align=left;overflow=fill;fontSize=12;fontFamily=Helvetica;html=1;whiteSpace=wrap;" parent="1" vertex="1">
          <mxGeometry x="530" y="570" width="170" height="110" as="geometry" />
        </mxCell>
        <mxCell id="U8iGTYYdDx7wfRS6JF8m-33" value="&lt;b&gt;&lt;font style=&quot;font-size: 17px;&quot;&gt;Metrics (difficulty, consistency) - Environment feedback&lt;/font&gt;&lt;/b&gt;" style="text;html=1;strokeColor=none;fillColor=none;align=center;verticalAlign=middle;whiteSpace=wrap;rounded=0;" parent="1" vertex="1">
          <mxGeometry x="530" y="70" width="265" height="30" as="geometry" />
        </mxCell>
        <mxCell id="U8iGTYYdDx7wfRS6JF8m-34" value="&lt;b&gt;&lt;font style=&quot;font-size: 17px;&quot;&gt;Metrics (difficulty, consistency) - Actor/learner&lt;/font&gt;&lt;/b&gt;" style="text;html=1;strokeColor=none;fillColor=none;align=center;verticalAlign=middle;whiteSpace=wrap;rounded=0;" parent="1" vertex="1">
          <mxGeometry x="80" y="310" width="265" height="30" as="geometry" />
        </mxCell>
        <mxCell id="U8iGTYYdDx7wfRS6JF8m-36" value="&lt;b&gt;&lt;font style=&quot;font-size: 17px;&quot;&gt;Usage scripts (train, test, generate problems...) - Controller&lt;/font&gt;&lt;/b&gt;" style="text;html=1;strokeColor=none;fillColor=none;align=center;verticalAlign=middle;whiteSpace=wrap;rounded=0;" parent="1" vertex="1">
          <mxGeometry x="485" y="500" width="265" height="30" as="geometry" />
        </mxCell>
        <mxCell id="U8iGTYYdDx7wfRS6JF8m-43" style="edgeStyle=orthogonalEdgeStyle;rounded=0;orthogonalLoop=1;jettySize=auto;html=1;exitX=0;exitY=0;exitDx=260;exitDy=148;exitPerimeter=0;entryX=0;entryY=0;entryDx=0;entryDy=206;entryPerimeter=0;strokeWidth=4;" parent="1" source="U8iGTYYdDx7wfRS6JF8m-37" target="U8iGTYYdDx7wfRS6JF8m-32" edge="1">
          <mxGeometry relative="1" as="geometry" />
        </mxCell>
        <mxCell id="U8iGTYYdDx7wfRS6JF8m-44" style="edgeStyle=orthogonalEdgeStyle;rounded=0;orthogonalLoop=1;jettySize=auto;html=1;exitX=0;exitY=0;exitDx=0;exitDy=142;exitPerimeter=0;entryX=0;entryY=0;entryDx=260;entryDy=282;entryPerimeter=0;strokeWidth=4;" parent="1" source="U8iGTYYdDx7wfRS6JF8m-35" target="U8iGTYYdDx7wfRS6JF8m-37" edge="1">
          <mxGeometry relative="1" as="geometry" />
        </mxCell>
        <mxCell id="U8iGTYYdDx7wfRS6JF8m-45" value="&lt;span style=&quot;font-size: 17px;&quot;&gt;&lt;b&gt;Use argparse and pass args containing all arguments to methods and functions&lt;/b&gt;&lt;/span&gt;" style="text;html=1;strokeColor=none;fillColor=none;align=center;verticalAlign=middle;whiteSpace=wrap;rounded=0;" parent="1" vertex="1">
          <mxGeometry x="500" y="840" width="200" height="30" as="geometry" />
        </mxCell>
        <mxCell id="AhLqE5Gg5YeaKjn5A4L0-1" value="&lt;p style=&quot;margin:0px;margin-top:4px;text-align:center;&quot;&gt;&lt;b&gt;constants.py&lt;/b&gt;&lt;/p&gt;&lt;hr size=&quot;1&quot;&gt;&lt;div style=&quot;text-align: justify; height: 2px;&quot;&gt;Constants use throughout the scripts.&lt;/div&gt;" style="verticalAlign=top;align=left;overflow=fill;fontSize=12;fontFamily=Helvetica;html=1;whiteSpace=wrap;" vertex="1" parent="1">
          <mxGeometry x="530" y="690" width="170" height="110" as="geometry" />
        </mxCell>
      </root>
    </mxGraphModel>
  </diagram>
</mxfile>
